<svg width="587" height="337" viewBox="0 0 587 337" fill="none" xmlns="http://www.w3.org/2000/svg">
<path fill-rule="evenodd" clip-rule="evenodd" d="M95.1786 1.16586e-06H491.821C506.632 -6.50713e-05 518.299 -0.000118461 527.689 0.850668C537.268 1.71864 545.267 3.52174 552.537 7.62955C564.413 14.3407 574.069 25.0493 580.121 38.2207C583.825 46.2827 585.45 55.1543 586.233 65.7778C587 76.1909 587 89.1311 587 105.556V105.557V231.444V231.444C587 247.87 587 260.809 586.233 271.222C585.45 281.846 583.825 290.717 580.121 298.779C574.069 311.951 564.413 322.659 552.537 329.37C545.267 333.478 537.268 335.281 527.689 336.149C518.3 337 506.632 337 491.822 337H491.822H95.1777H95.177C80.3672 337 68.7002 337 59.3112 336.149C49.732 335.281 41.7326 333.478 34.4632 329.37C22.5867 322.659 12.9308 311.951 6.87949 298.779C3.17552 290.717 1.54968 281.846 0.767038 271.222C-0.000106833 260.809 -5.86741e-05 247.87 1.05125e-06 231.444V105.556V105.556C-5.86743e-05 89.1304 -0.00010576 76.1909 0.767038 65.7778C1.54968 55.1543 3.17552 46.2827 6.87949 38.2207C12.9308 25.0493 22.5867 14.3407 34.4632 7.62955C41.7326 3.52174 49.732 1.71864 59.3112 0.850668C68.7006 -0.000117251 80.368 -6.50715e-05 95.1786 1.16586e-06H95.1786ZM60.7794 20.7843C52.3155 21.5512 46.9535 23.0179 42.65 25.4497C34.1668 30.2433 27.2698 37.8924 22.9474 47.3005C20.7546 52.0731 19.4321 58.0197 18.7406 67.4064C18.0405 76.9099 18.0334 89.0334 18.0334 106V231C18.0334 247.967 18.0405 260.09 18.7406 269.594C19.4321 278.98 20.7546 284.927 22.9474 289.7C28.5391 301.87 44.1229 303.99 55.0045 296.18C61.2629 291.689 67.2481 286.349 72.9997 280C150 195 189 158.561 300 173C341.653 178.418 364.928 201.001 391.816 227.09L391.817 227.09C397.176 232.29 402.679 237.63 408.5 243C432.19 264.857 459.777 289.06 495.045 308.025C496.531 308.824 497.275 309.224 499.548 310.214C509.835 314.695 525.729 316.205 536.675 313.743C539.095 313.198 540.846 312.649 544.35 311.55C554 308.5 559.73 299.108 564.052 289.7C566.245 284.927 567.567 278.98 568.259 269.594C568.959 260.09 568.966 247.967 568.966 231V106C568.966 89.0334 568.959 76.9099 568.259 67.4065C567.567 58.0197 566.245 52.0731 564.052 47.3005C559.73 37.8924 552.833 30.2433 544.35 25.4497C540.046 23.0179 534.684 21.5512 526.22 20.7843C517.651 20.0078 506.719 20 491.421 20H95.5787C80.2802 20 69.3485 20.0078 60.7794 20.7843Z" fill="black"/>
<path d="M425.679 117.698V100.716H420.103V145.831H425.679V127.392C425.679 120.866 429.481 117.508 434.043 117.508C438.669 117.508 441.457 119.915 441.457 126.632V145.831H447.033V126.188C447.033 117.381 442.724 112.946 435.374 112.946C431.635 112.946 428.024 114.466 425.806 117.698H425.679Z" fill="black"/>
<path d="M462.187 106.989V100.716H456.611V106.989H462.187ZM462.187 145.831V113.643H456.611V145.831H462.187Z" fill="black"/>
<path d="M477.657 145.831V100.716H472.081V145.831H477.657Z" fill="black"/>
<path d="M493.126 145.831V100.716H487.55V145.831H493.126Z" fill="black"/>
<path fill-rule="evenodd" clip-rule="evenodd" d="M455.056 59C457 59 458.576 60.576 458.576 62.5202L458.576 81.2945C458.576 83.2386 457 84.8146 455.056 84.8146C453.112 84.8146 451.536 83.2386 451.536 81.2945L451.536 62.5202C451.536 60.576 453.112 59 455.056 59Z" fill="black"/>
<path fill-rule="evenodd" clip-rule="evenodd" d="M386.857 75.2851C388.232 73.9104 390.461 73.9104 391.836 75.2851L405.111 88.5606C406.486 89.9353 406.486 92.1641 405.111 93.5388C403.736 94.9135 401.507 94.9135 400.133 93.5388L386.857 80.2634C385.483 78.8887 385.483 76.6599 386.857 75.2851Z" fill="black"/>
<path fill-rule="evenodd" clip-rule="evenodd" d="M523.255 75.2851C524.63 76.6598 524.63 78.8887 523.255 80.2634L509.98 93.5388C508.605 94.9135 506.377 94.9135 505.002 93.5388C503.627 92.1641 503.627 89.9353 505.002 88.5605L518.277 75.2851C519.652 73.9104 521.881 73.9104 523.255 75.2851Z" fill="black"/>
<path fill-rule="evenodd" clip-rule="evenodd" d="M455.056 159.912C457 159.912 458.576 161.488 458.576 163.432L458.576 182.206C458.576 184.15 457 185.726 455.056 185.726C453.112 185.726 451.536 184.15 451.536 182.206L451.536 163.432C451.536 161.488 453.112 159.912 455.056 159.912Z" fill="black"/>
<path fill-rule="evenodd" clip-rule="evenodd" d="M505.37 150.382C506.744 149.008 508.973 149.008 510.348 150.382L523.623 163.658C524.998 165.032 524.998 167.261 523.623 168.636C522.249 170.011 520.02 170.011 518.645 168.636L505.37 155.361C503.995 153.986 503.995 151.757 505.37 150.382Z" fill="black"/>
<path fill-rule="evenodd" clip-rule="evenodd" d="M404.743 150.382C406.118 151.757 406.118 153.986 404.743 155.361L391.467 168.636C390.093 170.011 387.864 170.011 386.489 168.636C385.114 167.261 385.114 165.032 386.489 163.658L399.765 150.382C401.139 149.008 403.368 149.008 404.743 150.382Z" fill="black"/>
</svg>
