<svg width="587" height="337" viewBox="0 0 587 337" fill="none" xmlns="http://www.w3.org/2000/svg">
<rect x="9" y="10" width="569" height="317" rx="60" fill="white"/>
<path fill-rule="evenodd" clip-rule="evenodd" d="M15.5396 42.7606C9 55.5953 9 72.3968 9 106V231C9 264.603 9 281.405 15.5396 294.239C18.6143 300.274 22.668 305.705 27.4997 310.333C44.3415 304.476 59.3303 295.09 73 280C150 195 189 158.561 300 173C349.956 179.498 381.455 208.561 416.479 240.875C448.611 270.522 483.709 302.906 538.749 323.115C541.048 322.379 543.194 321.503 545.239 320.46C556.529 314.708 565.708 305.529 571.46 294.239C578 281.405 578 264.603 578 231V106C578 72.3969 578 55.5953 571.46 42.7606C565.708 31.4708 556.529 22.292 545.239 16.5396C532.405 10 515.603 10 482 10H105C71.3968 10 54.5953 10 41.7606 16.5396C30.4708 22.292 21.292 31.4708 15.5396 42.7606Z" fill="black"/>
<path fill-rule="evenodd" clip-rule="evenodd" d="M95.1786 1.23001e-06H491.821C506.632 -6.74345e-05 518.299 -0.000120819 527.689 0.850665C537.268 1.71864 545.267 3.52174 552.537 7.62955C564.413 14.3407 574.069 25.0493 580.121 38.2207C583.824 46.2827 585.45 55.1543 586.233 65.7778C587 76.1912 587 89.1312 587 105.557V231.443C587 247.869 587 260.809 586.233 271.222C585.45 281.846 583.824 290.717 580.121 298.779C574.069 311.951 564.413 322.659 552.537 329.37C545.267 333.478 537.268 335.281 527.689 336.149C518.299 337 506.632 337 491.822 337H95.1784C80.3679 337 68.7005 337 59.3112 336.149C49.732 335.281 41.7326 333.478 34.4632 329.37C22.5867 322.659 12.9308 311.951 6.87948 298.779C3.17551 290.717 1.54968 281.846 0.767036 271.222C-0.000108957 260.809 -6.0805e-05 247.87 1.10909e-06 231.444V105.556C-6.0805e-05 89.1304 -0.000108957 76.1909 0.767036 65.7778C1.54968 55.1543 3.17551 46.2827 6.87948 38.2207C12.9308 25.0493 22.5867 14.3407 34.4632 7.62955C41.7326 3.52174 49.732 1.71864 59.3112 0.850665C68.7006 -0.000120819 80.368 -6.74345e-05 95.1786 1.23001e-06ZM60.7797 20.7842C52.3158 21.5512 46.9538 23.0179 42.6504 25.4497C34.1672 30.2433 27.2701 37.8924 22.9477 47.3005C20.755 52.0732 19.4325 58.0197 18.7409 67.4064C18.0408 76.9099 18.0338 89.0334 18.0338 106V231C18.0338 247.967 18.0408 260.09 18.7409 269.594C19.4325 278.98 20.755 284.927 22.9477 289.7C27.2701 299.108 34.1672 306.757 42.6504 311.55C46.9538 313.982 52.3158 315.449 60.7797 316.216C69.3489 316.992 80.2805 317 95.5791 317H491.421C506.72 317 517.651 316.992 526.22 316.216C534.684 315.449 540.046 313.982 544.35 311.55C552.833 306.757 559.73 299.108 564.052 289.7C566.245 284.927 567.568 278.98 568.259 269.594C568.959 260.09 568.966 247.967 568.966 231V106C568.966 89.0334 568.959 76.9099 568.259 67.4064C567.568 58.0197 566.245 52.0732 564.052 47.3005C559.73 37.8924 552.833 30.2433 544.35 25.4497C540.046 23.0179 534.684 21.5512 526.22 20.7842C517.651 20.0078 506.719 20 491.421 20H95.5791C80.2805 20 69.3489 20.0078 60.7797 20.7842Z" fill="black"/>
<path d="M456.278 87.024V72.552H451.526V111H456.278V95.286C456.278 89.724 459.518 86.862 463.406 86.862C467.348 86.862 469.724 88.914 469.724 94.638V111H474.476V94.26C474.476 86.754 470.804 82.974 464.54 82.974C461.354 82.974 458.276 84.27 456.386 87.024H456.278Z" fill="white"/>
<path d="M487.391 77.898V72.552H482.639V77.898H487.391ZM487.391 111V83.568H482.639V111H487.391Z" fill="white"/>
<path d="M500.575 111V72.552H495.823V111H500.575Z" fill="white"/>
<path d="M513.758 111V72.552H509.006V111H513.758Z" fill="white"/>
<path fill-rule="evenodd" clip-rule="evenodd" d="M481.314 37C482.971 37 484.314 38.3431 484.314 40L484.314 56C484.314 57.6569 482.971 59 481.314 59C479.657 59 478.314 57.6569 478.314 56L478.314 40C478.314 38.3431 479.657 37 481.314 37Z" fill="white"/>
<path fill-rule="evenodd" clip-rule="evenodd" d="M423.192 50.8787C424.364 49.7071 426.263 49.7071 427.435 50.8787L438.749 62.1924C439.92 63.364 439.92 65.2635 438.749 66.435C437.577 67.6066 435.678 67.6066 434.506 66.435L423.192 55.1213C422.021 53.9497 422.021 52.0503 423.192 50.8787Z" fill="white"/>
<path fill-rule="evenodd" clip-rule="evenodd" d="M539.435 50.8787C540.607 52.0502 540.607 53.9497 539.435 55.1213L528.121 66.435C526.95 67.6066 525.05 67.6066 523.879 66.435C522.707 65.2635 522.707 63.364 523.879 62.1924L535.192 50.8787C536.364 49.7071 538.263 49.7071 539.435 50.8787Z" fill="white"/>
<path fill-rule="evenodd" clip-rule="evenodd" d="M481.314 123C482.971 123 484.314 124.343 484.314 126L484.314 142C484.314 143.657 482.971 145 481.314 145C479.657 145 478.314 143.657 478.314 142L478.314 126C478.314 124.343 479.657 123 481.314 123Z" fill="white"/>
<path fill-rule="evenodd" clip-rule="evenodd" d="M524.192 114.879C525.364 113.707 527.263 113.707 528.435 114.879L539.749 126.192C540.92 127.364 540.92 129.263 539.749 130.435C538.577 131.607 536.678 131.607 535.506 130.435L524.192 119.121C523.021 117.95 523.021 116.05 524.192 114.879Z" fill="white"/>
<path fill-rule="evenodd" clip-rule="evenodd" d="M438.435 114.879C439.607 116.05 439.607 117.95 438.435 119.121L427.121 130.435C425.95 131.607 424.05 131.607 422.879 130.435C421.707 129.263 421.707 127.364 422.879 126.192L434.192 114.879C435.364 113.707 437.263 113.707 438.435 114.879Z" fill="white"/>
</svg>
