<svg width="587" height="337" viewBox="0 0 587 337" fill="none" xmlns="http://www.w3.org/2000/svg">
<path fill-rule="evenodd" clip-rule="evenodd" d="M95.1786 1.16586e-06H491.821C506.632 -6.50713e-05 518.299 -0.000118461 527.689 0.850668C537.268 1.71864 545.267 3.52174 552.537 7.62955C564.413 14.3407 574.069 25.0493 580.121 38.2207C583.825 46.2827 585.45 55.1543 586.233 65.7778C587 76.1909 587 89.1311 587 105.556V105.557V231.444V231.444C587 247.87 587 260.809 586.233 271.222C585.45 281.846 583.825 290.717 580.121 298.779C574.069 311.951 564.413 322.659 552.537 329.37C545.267 333.478 537.268 335.281 527.689 336.149C518.3 337 506.632 337 491.822 337H491.822H95.1777H95.177C80.3672 337 68.7002 337 59.3112 336.149C49.732 335.281 41.7326 333.478 34.4632 329.37C22.5867 322.659 12.9308 311.951 6.87949 298.779C3.17552 290.717 1.54968 281.846 0.767038 271.222C-0.000106833 260.809 -5.86741e-05 247.87 1.05125e-06 231.444V105.556V105.556C-5.86743e-05 89.1304 -0.00010576 76.1909 0.767038 65.7778C1.54968 55.1543 3.17552 46.2827 6.87949 38.2207C12.9308 25.0493 22.5867 14.3407 34.4632 7.62955C41.7326 3.52174 49.732 1.71864 59.3112 0.850668C68.7006 -0.000117251 80.368 -6.50715e-05 95.1786 1.16586e-06H95.1786ZM60.7794 20.7843C52.3155 21.5512 46.9535 23.0179 42.65 25.4497C34.1668 30.2433 27.2698 37.8924 22.9474 47.3005C20.7546 52.0731 19.4321 58.0197 18.7406 67.4064C18.0405 76.9099 18.0334 89.0334 18.0334 106V231C18.0334 247.967 18.0405 260.09 18.7406 269.594C19.4321 278.98 20.7546 284.927 22.9474 289.7C28.5391 301.87 44.1229 303.99 55.0045 296.18C61.2629 291.689 67.2481 286.349 72.9997 280C150 195 189 158.561 300 173C341.653 178.418 364.928 201.001 391.816 227.09L391.817 227.09C397.176 232.29 402.679 237.63 408.5 243C432.19 264.857 459.777 289.06 495.045 308.025C496.531 308.824 497.275 309.224 499.548 310.214C509.835 314.695 525.729 316.205 536.675 313.743C539.095 313.198 540.846 312.649 544.35 311.55C554 308.5 559.73 299.108 564.052 289.7C566.245 284.927 567.567 278.98 568.259 269.594C568.959 260.09 568.966 247.967 568.966 231V106C568.966 89.0334 568.959 76.9099 568.259 67.4065C567.567 58.0197 566.245 52.0731 564.052 47.3005C559.73 37.8924 552.833 30.2433 544.35 25.4497C540.046 23.0179 534.684 21.5512 526.22 20.7843C517.651 20.0078 506.719 20 491.421 20H95.5787C80.2802 20 69.3485 20.0078 60.7794 20.7843Z" fill="black"/>
<path d="M416.913 116.766V102H412V141.229H416.913V125.196C416.913 119.521 420.263 116.601 424.283 116.601C428.359 116.601 430.816 118.694 430.816 124.534V141.229H435.729V124.149C435.729 116.49 431.932 112.634 425.456 112.634C422.162 112.634 418.979 113.956 417.025 116.766H416.913Z" fill="black"/>
<path d="M449.083 107.455V102H444.169V107.455H449.083ZM449.083 141.229V113.24H444.169V141.229H449.083Z" fill="black"/>
<path d="M462.714 141.229V102H457.8V141.229H462.714Z" fill="black"/>
<path d="M476.345 141.229V102H471.432V141.229H476.345Z" fill="black"/>
<path d="M494.052 112.468C487.854 112.468 483.555 115.774 483.555 120.567C483.555 126.683 488.413 127.62 493.158 128.777C498.63 130.099 500.975 130.705 500.975 133.956C500.975 136.49 498.518 138.143 494.833 138.143C490.423 138.143 487.854 135.939 487.854 131.917H482.885C482.941 138.474 487.352 142 494.778 142C501.645 142 506 138.639 506 133.625C506 127.124 500.473 125.967 495.28 124.7C490.534 123.598 488.468 123.102 488.468 120.182C488.468 117.758 490.59 116.215 493.996 116.215C497.96 116.215 500.305 118.253 500.305 122H505.107C505.107 115.829 500.975 112.468 494.052 112.468Z" fill="black"/>
<path fill-rule="evenodd" clip-rule="evenodd" d="M455 58C456.657 58 458 59.4042 458 61.1364L458 77.8636C458 79.5958 456.657 81 455 81C453.344 81 452 79.5958 452 77.8636L452 61.1364C452 59.4042 453.344 58 455 58Z" fill="black"/>
<path fill-rule="evenodd" clip-rule="evenodd" d="M386.451 72.2873C387.657 71.0813 389.612 71.0813 390.818 72.2873L402.465 83.9341C403.671 85.1402 403.671 87.0956 402.465 88.3017C401.259 89.5078 399.304 89.5078 398.098 88.3017L386.451 76.6549C385.245 75.4488 385.245 73.4934 386.451 72.2873Z" fill="black"/>
<path fill-rule="evenodd" clip-rule="evenodd" d="M523.663 72.2873C524.869 73.4934 524.869 75.4488 523.663 76.6549L512.016 88.3017C510.81 89.5078 508.854 89.5078 507.648 88.3017C506.442 87.0956 506.442 85.1402 507.648 83.9341L519.295 72.2873C520.501 71.0812 522.457 71.0812 523.663 72.2873Z" fill="black"/>
<path fill-rule="evenodd" clip-rule="evenodd" d="M455 164C456.657 164 458 165.404 458 167.136L458 183.864C458 185.596 456.657 187 455 187C453.344 187 452 185.596 452 183.864L452 167.136C452 165.404 453.344 164 455 164Z" fill="black"/>
<path fill-rule="evenodd" clip-rule="evenodd" d="M507.971 155.718C509.177 154.512 511.133 154.512 512.339 155.718L523.986 167.365C525.192 168.571 525.192 170.526 523.986 171.733C522.78 172.939 520.824 172.939 519.618 171.733L507.971 160.086C506.765 158.88 506.765 156.924 507.971 155.718Z" fill="black"/>
<path fill-rule="evenodd" clip-rule="evenodd" d="M402.143 155.718C403.349 156.924 403.349 158.88 402.143 160.086L390.496 171.733C389.29 172.939 387.334 172.939 386.128 171.733C384.922 170.526 384.922 168.571 386.128 167.365L397.775 155.718C398.981 154.512 400.937 154.512 402.143 155.718Z" fill="black"/>
</svg>
